<?xml version="1.0" encoding="iso-8859-1"?>
<!-- Generator: Adobe Illustrator 27.2.0, SVG Export Plug-In . SVG Version: 6.00 Build 0)  -->
<svg version="1.1" id="Layer_1" xmlns="http://www.w3.org/2000/svg" xmlns:xlink="http://www.w3.org/1999/xlink" x="0px" y="0px"
	 viewBox="0 0 1843.2 648.404" style="enable-background:new 0 0 1843.2 648.404;" xml:space="preserve">
<rect style="fill:none;" width="1843.2" height="648.404"/>
<g>
	<path style="fill:#FFFFFF;" d="M779.586,600.918c-2.348-0.244-4.993,0.811-7.862,3.14c-10.733,8.714-25.569,14.212-49.606,18.384
		c-8.915,1.548-12.575,1.728-35.601,1.75c-25.237,0.025-28.546-0.184-50.601-3.176c-41.08-5.574-88.883-19.049-142.081-40.05
		c-53.255-21.023-111.821-49.552-174.071-84.794c-19.531-11.057-33.139-18.837-52.003-29.729
		c-10.953-6.325-24.217-13.943-29.569-16.982c-4.704-2.671-7.485-4.436-8.284-5.257c0.374-1.706,1.257-6.388,1.998-10.477
		l1.554-8.579l7.371-2.877c83.736-32.683,164.828-88.392,216.922-149.022c15.507-18.049,28.178-35.894,37.66-53.041
		c9.508-17.194,16.11-34.229,19.624-50.634c2.14-9.99,3.01-32.521,1.605-41.567c-2.91-18.74-10.117-35.773-21.419-50.628
		c-5.137-6.753-17.571-19.458-24.639-25.175c-13.761-11.129-35.444-23.222-55.24-30.81C382.247,8.709,344.707,1.591,303.765,0.237
		c-40.899-1.354-83.585,3.1-126.872,13.235c-24.993,5.852-48.869,13.505-70.962,22.747c-22.126,9.256-41.275,19.608-56.915,30.769
		c-11.512,8.215-21.2,16.854-28.794,25.679c-7.551,8.774-13.07,17.772-16.403,26.744c-3.36,9.045-4.511,18.085-3.42,26.871
		c1.104,8.888,4.504,17.523,10.106,25.665c9.549,13.878,31.013,30.349,52.197,40.054c3.713,1.701,5.114,2.549,5.633,2.964
		c-0.13,1.267-0.294,4.736-0.562,15.402c-0.221,8.76-0.458,20.467-0.669,32.962c-0.242,14.306-0.757,47.768-0.325,49.491
		c0.61,2.431,2.634,4.199,5.157,4.504c2.361,0.284,4.495-0.798,5.568-2.826c0.388-0.733,1.196-2.259,3.128-78.637
		c0.17-6.707,0.344-13.607,0.681-16.221c1.854,0.562,5.402,1.641,9.033,2.746c21.73,6.619,44.736,9.984,68.377,9.999l10.922,0.007
		v1.554c0,1.772-0.708,11.919-1.545,22.159c-0.856,10.473-2.267,30.658-3.145,44.996c-2.857,46.668-4.704,75.923-5.2,82.376
		c-0.446,5.798-0.469,7.249,1.702,9.42c1.057,1.058,2.879,2.197,4.382,2.197c5.358,0,5.698-4.192,7.33-24.335
		c2.654-32.753,3.099-38.97,4.754-66.52c1.904-31.687,4.727-67.047,5.59-72.384c0.469-0.122,1.273-0.251,2.251-0.255
		c5.238-0.019,23.854-2.818,34.344-5.164c12.749-2.85,24.608-6.888,32.536-11.08c1.288-0.681,2.403-1.25,3.312-1.699
		c-0.603,3.511-1.681,9.693-3.013,17.236c-1.955,11.076-7.912,46.539-13.28,79.053c-13.838,83.827-17.09,103.003-18.371,105.266
		c-2.119,1.072-18.13,6.449-26.063,8.516c-2.904,0.756-2.904,0.756-11.708-3.288c-24.3-11.163-40.408-15.721-55.567-15.721
		c-0.028,0-0.056,0-0.084,0c-14.991,0.016-24.431,4.426-28.058,13.108c-1.589,3.801-1.663,5.457-0.446,9.843
		c1.915,6.896,8.502,12.141,19.05,15.17c10.14,2.912,23.267,3.586,37.963,1.95c6.517-0.726,16.066-2.202,21.287-3.291
		c1.204-0.251,2.303-0.485,3.312-0.7c5.434-1.157,8.162-1.738,10.47-1.429c2.291,0.305,4.612,1.555,9.235,4.045
		c0.863,0.465,1.803,0.971,2.835,1.521c5.87,3.127,9.981,5.391,11.609,6.33c-0.811,6.95-9.49,51.563-15.706,79.713
		c-4.837,21.909-14.28,68.792-15.31,76.008c-0.395,2.767-0.762,3.594-4.098,6.864c-3.111,3.049-4.959,4.134-10.41,6.113
		c-6,2.178-15.329,4.46-18.716,4.911c0.012-0.108,0.029-0.223,0.05-0.343c0.536-3.06,2.732-33.87,2.732-38.333
		c0-1.271-0.171-4.399-1.753-5.982c-1.151-1.151-2.9-1.79-4.681-1.706c-1.544,0.071-2.856,0.667-3.695,1.677
		c-1.308,1.576-2.232,6.632-3.94,31.099c-0.519,7.431-1.026,12.751-1.308,14.91c-4.5,0.264-22.116,0.133-35.436-0.511l-8.597-0.416
		l0.371-7.291c0.257-5.049,0.785-14.911,1.177-21.983c0.395-7.14,0.957-23.745,1.253-37.015c0.267-11.967,0.36-17.505,0.246-20.818
		c-0.119-3.454-0.475-4.809-1.59-6.041c-1.171-1.294-2.825-2.061-4.535-2.104c-1.617-0.041-3.109,0.548-4.216,1.655
		c-1.326,1.325-1.836,3.083-2.187,7.522c-0.346,4.386-0.544,11.856-0.807,24.987c-0.587,29.147-1.536,55.19-2.036,60.633
		c-2.021-0.023-7.366-0.838-14.365-2.87c-8.466-2.457-15.586-5.99-24.574-12.196c-8.212-5.669-9.87-6.693-13.407-5.349
		c-2.417,0.919-3.881,3.014-4.122,5.901c-0.513,6.141,4.427,14.277,11.012,18.136c9.664,5.663,20.164,7.73,56.18,11.054
		c7.728,0.713,15.533,1.069,23.231,1.069c8.924,0,17.705-0.478,26.057-1.433c15.646-1.788,28.641-5.121,37.581-9.638
		c6.702-3.386,9.303-5.51,13.251-10.822c3.001-4.037,3.782-5.945,4.646-11.345c1.616-10.093,9.112-47.333,14.584-72.448
		c2.82-12.939,7.494-35.686,10.42-50.707c2.354-12.083,4.333-21.703,5.204-25.559c5.471,2.788,24.583,13.722,59.458,33.801
		c74.132,42.68,137.987,74.72,195.215,97.952c57.292,23.258,107.892,37.668,154.692,44.052c32.206,4.394,70.447,4.236,95.156-0.394
		c21.247-3.982,40.102-12.122,50.438-21.776c3.057-2.856,4.243-5.23,1.261-8.912C782.716,601.924,781.241,601.091,779.586,600.918z
		 M217.824,438.008c-1.929-0.94-5.744-3.045-8.274-4.546c2.816-1.026,7.14-2.454,9.713-3.2
		C218.921,432.608,218.279,436.255,217.824,438.008z M35.35,173.445c1.779-2.128,2.999-3.558,3.726-4.033
		c0.285-0.186,0.381-0.249,1.604,0.012c1.116,0.238,8.149,2.689,16.456,5.825c20.484,7.733,36.246,11.596,58.156,14.254
		c10.195,1.236,41.82,1.205,52.059-0.051c15.964-1.958,31.398-5.428,43.46-9.772c8.718-3.139,19.957-8.271,23.993-14.891
		c2.465-4.041,2.327-9.473-0.308-12.108c-3.385-3.386-8.022-2.066-14.406,1.161c-3.256,1.646-8.342,3.702-11.338,4.583
		c-19.453,5.721-47.951,8.757-78.191,8.333c-30.207-0.425-56.753-4.225-72.832-10.425c-8.613-3.321-10.593-5.74-10.739-7.183
		c-0.105-1.044,0.709-2.889,5.184-5.748c10.735-6.861,28.963-11.599,51.324-13.343c22.505-1.755,48.33-0.396,72.718,3.827
		c13.536,2.344,28.267,6.001,40.416,10.033c13.752,4.564,19.947,8.167,21.159,10.017c0.891,1.359,1.094,3.718,1.146,13.284
		c0.011,2.093,0.104,12.617,0.826,14.248c0.53,1.2,1.612,2.134,3.047,2.628c1.745,0.601,3.724,0.458,5.294-0.382
		c0.519-0.278,0.805-0.431,3.902,1.255c5.483,2.984,7.584,6.285,7.278,7.577c-1.091,4.606-7.817,9.585-18.938,14.02
		c-11.716,4.673-27.6,8.507-45.934,11.089c-11.784,1.658-48.89,1.887-61.082,0.378c-21.586-2.674-41.375-7.716-58.819-14.986
		c-17.097-7.125-31.607-16.25-43.141-27.131C32.866,175.59,34.272,174.734,35.35,173.445z M271.374,197.749
		c1.634-6.824,0.284-11.785-4.661-17.125c-2.516-2.716-11.832-8.412-15.103-9.235c-0.079-0.02-0.21-0.053-0.318-0.084
		c-0.252-0.885-0.272-4.004-0.298-8.217c-0.097-15.401-2.584-19.282-16.637-25.953c-21.038-9.986-56.537-17.934-90.436-20.25
		c-14.172-0.968-38.143-0.558-50.293,0.86c-14.673,1.714-27.802,4.856-37.968,9.087c-10.186,4.239-17.178,9.484-20.221,15.167
		c-2.293,4.284-2.341,8.831-0.139,13.151c0.222,0.436,0.425,0.837,0.604,1.196c-0.037,0.007-0.074,0.015-0.112,0.023
		c-3.815,0.763-9.256,5.993-11.034,9.74c-0.346,0.728-0.612,1.353-0.79,1.93c-3.998-4.899-6.866-9.807-8.691-14.845
		c-2.702-7.461-3.027-14.995-0.994-23.032c3.097-12.244,9.551-22.464,22.28-35.277c17.773-17.89,45.143-34.618,79.151-48.376
		c34.093-13.792,73.094-23.882,112.787-29.178c21.792-2.907,43.541-4.29,64.643-4.117c20.829,0.173,41.08,1.867,60.192,5.034
		c19.094,3.164,37.081,7.803,53.462,13.789c16.559,6.051,31.516,13.494,44.455,22.122c17.561,11.71,30.989,25.153,39.912,39.956
		c8.891,14.75,13.433,31.066,13.499,48.495c0.046,11.979-0.76,18.029-4.106,30.829c-5.237,20.035-15.835,41.542-31.5,63.926
		c-15.71,22.448-35.863,44.841-59.899,66.559c-45.006,40.665-108.232,80.02-165.247,102.889l-0.998,0.398
		c-2.897,1.154-5.295,2.044-6.802,2.567c1.221-6.399,28.111-169.004,31.329-189.459
		C268.997,210.433,270.761,200.308,271.374,197.749z M165.12,430.355c-18.265,3.037-34.336,2.913-44.091-0.341
		c-7.63-2.545-9.166-4.531-9.403-5.488c-0.168-0.681,0.245-1.546,1.228-2.573c2.638-2.752,8.493-4.161,15.721-4.161
		c5.971,0,12.879,0.961,19.68,2.921c7.609,2.191,17.931,6.15,23.004,8.459C169.661,429.532,167.564,429.949,165.12,430.355z"/>
	<path style="fill:#FFFFFF;" d="M926.438,429.42c2.776,1.37,8.487,0.737,10.841,0.396c1.857-0.269,8.103-1.318,10.552-3.534
		c1.265-1.146,2.017-2.876,2.064-4.747c0.05-2-0.689-3.914-2.027-5.252c-2.572-2.572-4.691-2.472-20.496-0.91
		c-6.514,0.644-29.619,2.936-51.346,5.094c-58.212,5.783-93.75,7.51-111.84,5.438c-0.655-0.075-1.273-0.145-1.854-0.21
		c-2.275-0.256-4.33-0.488-5.534-0.722c0.458-0.532,1.096-1.208,1.687-1.834c0.27-0.286,0.558-0.591,0.861-0.915
		c7.075-7.564,9.473-12.134,9.505-18.11c0.025-4.522-0.404-5.692-3.059-8.346c-2.876-2.877-3.914-3.084-9.095-3.064
		c-7.315,0.028-12.326,2.421-19.15,9.147c-3.866,3.81-6.27,7.72-7.144,11.621c-0.898,4.01-0.211,8.041,2.044,11.98l0.794,1.388
		l-0.612,0.495c-4.92,3.984-22.433,12.855-30.224,15.31c-9.447,2.977-16.323,3.044-19.363,0.188
		c-2.551-2.397-3.187-7.796-1.839-15.613c0.667-3.863,2.118-9.756,3.236-13.137l1.913-5.788l10.254-8.802
		c33.334-28.612,63.746-62.984,75.676-85.531c4.951-9.356,6.13-14.42,4.348-18.684c-1.64-3.925-4.228-5.454-9.231-5.454
		c-6.47,0-15.404,6.197-29.873,20.72c-22.345,22.427-42.142,49.608-55.745,76.535l-6.41,12.689l-8.886,6.772
		c-27.069,20.626-53.971,35.032-65.422,35.032c-1.168,0-2.04-0.281-2.455-0.792c-0.447-0.551-0.385-1.411-0.254-2.037
		c1.136-5.434,4.722-11.476,9.838-16.577c4.685-4.67,9.932-7.794,13.695-8.152c2.858-0.273,3.797,1.157,4.255,2.255
		c1.062,2.542,2.9,4.176,5.041,4.483c1.813,0.261,3.594-0.507,4.887-2.104c1.261-1.557,1.675-3.673,1.165-5.958
		c-0.833-3.733-3.933-7.384-7.896-9.303c-8.915-4.316-20.688-0.319-31.492,10.693c-5.057,5.155-6.557,6.112-9.836,7.18
		c-2.5,0.814-9.117,3.081-14.75,5.055c-5.424,1.9-11.904,3.729-14.15,3.993c-1.729,0.203-2.812,0.32-3.291,0.16
		c-0.363-0.121-0.835-0.65-1.753-1.745c-3.123-3.723-6.199-5.928-11.061-4.584c-4.267,1.179-9.816,5.169-17.959,11.664
		c-21.072,16.806-32.782,24.015-39.155,24.104c-2.4,0.032-2.452-0.062-2.945-0.97c-1.008-1.859-0.722-12.172,1.536-21.369l1.5-6.112
		l12.93-12.485c17.178-16.587,32.911-34.41,46.763-52.973c13.861-18.576,25.482-37.416,34.54-55.998
		c14.426-29.595,17.703-45.101,10.956-51.848c-2.077-2.077-3.734-2.744-6.819-2.744c-6.265,0-10.611,2.758-21.136,13.412
		c-15.052,15.238-32.224,38.716-48.352,66.11c-14.123,23.988-26.086,48.667-34.241,70.534c0.003-0.074,0.005-0.148,0.005-0.221
		c0-3.597-3.126-6.619-7.432-7.185c-3.211-0.422-5.272,0.326-11.199,3.311c-3.977,2.003-10.523,6.298-14.593,9.573
		c-9.635,7.756-27.257,16.457-32.396,16.735c-0.904,0.049-2.12,0.114-2.525,0.03c-0.147-0.25-0.384-0.933-0.532-1.358
		c-0.404-1.162-0.873-4.746-0.899-8.031c-0.05-6.242-1.518-10.225-4.49-12.179c-2.647-1.74-6.29-1.65-10.829,0.268
		c-0.597,0.252-1.842,0.778-2.527,0.981c-2.468-4.248-8.159-9.972-12.097-12.136c-3.979-2.187-5.583-2.56-11.223-2.56
		c-0.056,0-0.113,0-0.169,0c-5.463,0.007-7.607,0.444-12.077,2.463c-9.57,4.324-20.841,13.198-30.148,23.739
		c-9.57,10.839-15.05,21-15.035,27.877c0.012,5.743,2.14,9.153,6.898,11.057c5.629,2.252,12.021,0.674,26.303-6.496
		c10.804-5.424,22.476-12.294,43.065-25.349c2.621-1.662,4.594-2.59,5.109-2.736c1.891-0.11,3.856-2.31,4.079-2.567
		c0.053-0.061,0.107-0.121,0.159-0.179c0.122,0.671,0.247,1.512,0.351,2.515c0.827,7.93,3.599,13.336,8.239,16.067
		c5.085,2.992,12.144,2.598,20.982-1.171l0.692-0.295l-0.041,1.815c-0.132,5.761,1.51,8.853,6.509,12.255
		c6.803,4.63,20.07,1.36,34.625-8.532c0.192-0.13,0.377-0.255,0.554-0.373c-0.041,0.275-0.086,0.568-0.137,0.879
		c-0.422,2.585-0.592,7.694-0.377,11.391c0.333,5.721,0.844,7.662,2.881,10.929c1.392,2.234,3.864,4.745,5.627,5.716
		c1.996,1.101,3.603,1.478,6.129,1.478c0.936,0,1.998-0.052,3.252-0.138c10.385-0.711,20.467-6.759,51.37-30.814
		c2.915-2.269,5.247-3.911,6.376-4.619c0.059,0.081,0.117,0.172,0.17,0.27c0.847,1.584,3.775,3.311,5.205,4.003
		c5.67,2.745,12.538,2.053,26.247-2.644c3.853-1.32,6.82-2.316,8.611-2.904c0.029,0.701,0.049,1.58,0.049,2.598
		c0,4.371,0.318,5.973,2.559,8.909c1.359,1.782,3.67,3.857,5.261,4.723c4.522,2.462,15.104,1.815,21.772-0.305
		c12.093-3.846,29.832-13.624,47.451-26.157c2.157-1.534,4.645-3.305,6.408-4.473c-0.26,2.288-0.515,5.603-0.668,8.441
		c-0.375,6.95-0.177,9.519,1.008,13.087c1.595,4.803,6.098,10.44,9.832,12.31c6.74,3.374,16.948,3.261,28.006-0.309
		c7.709-2.489,24.919-11.044,32.306-16.06l5.761-3.911l5.269,1.348c10.014,2.561,23.258,3.398,45.716,2.889
		c23.669-0.537,43.255-1.901,74.848-5.215C896.726,431.495,923.457,428.816,926.438,429.42z M755.115,405.781
		c-0.65,1.223-2.26,3.552-6.235,7.751c-2.324,2.455-4.226,4.346-5.366,5.417c-0.035-0.351-0.06-0.82-0.06-1.445
		c0-1.616,0.257-2.513,2.979-5.54C748.671,409.475,752.817,406.822,755.115,405.781z M703.169,375.633
		c0.06-0.096,0.117-0.188,0.171-0.274c5.382-8.64,14.942-22.13,21.763-30.711c11.264-14.169,26.815-30.279,35.613-37.097
		c-8.292,15.68-28.403,39.731-54.881,65.498C705.113,373.752,704.172,374.668,703.169,375.633z M572.471,278.599
		c3.814-3.852,6.926-6.74,8.753-8.299c-0.447,2.899-2.249,9.093-6.411,19.117c-4.829,11.632-11.189,24.466-17.013,34.329
		c-15.474,26.207-32.427,48.475-56.685,74.457c-2.532,2.712-4.429,4.666-5.849,6.072c7.175-17.565,19.277-42.511,28.407-58.368
		C538.969,319.343,557.667,293.552,572.471,278.599z M328.709,444.46L328.709,444.46c-1.355,0.478-2.212,0.715-2.751,0.828
		c0.206-0.608,0.628-1.619,1.477-3.293c4.296-8.467,15.311-20.836,25.622-28.77c6.831-5.256,13.439-8.084,18.468-8.084
		c1.86,0,3.504,0.387,4.863,1.181c2.063,1.204,5.672,5.456,6.594,7.214C378.013,417.981,338.404,441.039,328.709,444.46z
		 M477.405,414.549l-2.81,8.376l-5.079,3.757c-11.037,8.162-20.569,13.223-26.153,13.884l-1.841,0.218v-0.472
		c0-2.703,2.052-6.576,5.629-10.625c2.187-2.476,5.731-4.751,14.585-9.361c11.529-6.003,16.158-9.628,17.91-12.195
		C478.86,410.301,478.112,412.441,477.405,414.549z"/>
	<path style="fill:#FFFFFF;" d="M1841.436,487.369L1841.436,487.369c-0.436-0.362-1.595-1.323-16.067-2.405
		c-7.65-0.572-17.66-1.444-22.314-1.945c-3.026-0.326-9.13-0.837-10.689-0.451c-2.2,0.386-23.698-1.891-62.576-6.224
		c-63.181-7.042-116.151-15.629-157.438-25.522c-41.165-9.863-72.218-21.379-92.297-34.228c-1.264-0.809-2.258-1.515-2.94-2.035
		c1.436-1.336,4.249-3.8,8.019-6.916c11.017-9.103,30.926-29.197,39.45-39.814c13.078-16.291,22.5-32.303,27.246-46.304
		c2.9-8.555,3.611-20.624,1.619-27.478c-3.635-12.504-14.277-19.401-29.966-19.421c-0.022,0-0.041,0-0.063,0
		c-26.033,0-60.22,20.406-79.546,47.489c-7.275,10.196-12.102,21.335-13.959,32.215c-1.87,10.959-0.73,21.653,3.297,30.926
		c2.911,6.703,10.15,16.801,16.839,23.489l4.885,4.885l-0.217,0.164c-3.741,2.821-9.628,6.383-15.753,9.772
		c0.611-0.7,1.039-1.477,1.266-2.315c0.555-2.052-0.162-4.269-2.017-6.244c-3.08-3.278-7.011-2.649-11.968-0.696
		c-5.203,2.051-18.337,4.293-34.275,5.851c-15.97,1.561-30.234,1.987-37.226,1.113c-8.331-1.042-12.467-3.359-13.118-4.574
		c-0.646-1.209-2.596-2.838-4.188-3.822c-2.787-1.723-4.646-1.931-8.485-1.654c-4.098,0.296-6.943,1.353-16.027,5.95
		c-2.984,1.51-5.604,2.829-7.565,3.812c2.2-5.003,2.625-9.096,1.263-12.167c-0.995-2.241-2.868-3.829-5.567-4.72
		c-4.092-1.35-7.392-0.599-17.426,2.882c-26.588,9.223-32.458,11.055-36.948,11.53c-1.525,0.162-5.099,0.54-5.924-0.203
		c-0.542-0.487-0.604-2.265-0.604-3.56c0-3.885-0.364-5.432-2.643-7.543c-5.179-4.801-8.882-2.189-23.73,9.652
		c-12.29,9.801-23.466,16.739-27.271,18.181c0.392-1.16,1.452-3.478,4.307-7.796c3.305-4.998,8.034-11.202,13.678-17.94
		c5.213-6.224,7.218-9.378,4.538-13.467c-1.126-1.718-2.451-2.654-4.05-2.861c-2.642-0.342-5.661,1.314-10.765,5.91
		c-13.553,12.203-29.499,23.714-40.626,29.325c-6.667,3.363-15.355,6.05-19.727,6.902c0.752-0.91,1.707-2.038,2.819-3.314
		c11.009-12.635,19.595-25.735,24.175-36.886c2.338-5.693,2.969-8.449,3.219-14.043c0.252-5.674,0.088-7.58-1.551-10.183
		c-2.287-3.631-5.308-5.659-8.979-6.027c-6.286-0.629-13.919,3.71-22.686,12.9c-9.368,9.82-16.746,21.243-20.776,32.165
		c-4.123,11.173-4.459,21.1-0.947,27.953l1.033,2.015l-2.241,1.921c-8.107,6.948-18.007,11.915-23.027,11.545l-1.684-0.123
		l-0.134-2.078c-0.142-2.2,0.352-4.605,1.557-7.569c3.933-9.678,15.896-27.83,23.704-35.969c5.225-5.446,3.667-9.244,1.44-11.471
		c-2.256-2.255-3.954-2.857-8.63-0.738c-4.396,1.992-12.494,6.865-27.194,15.71c-10.081,6.066-25.026,15.133-33.315,20.211
		c-7.592,4.651-12.909,7.737-14.701,8.68c-0.429-0.324-1.092-0.897-1.826-1.673c-10.275-10.876-39.097-31.987-73.429-53.782
		c-39.199-24.885-55.584-36.937-67.43-49.6c-13.568-14.504-19.352-27.655-19.341-43.971c0.013-18.998,8.585-38.179,27.795-62.191
		c8.257-10.322,30.213-32.348,41.951-42.085c21.039-17.453,50.159-37.352,72.459-49.517c42.158-22.998,78.77-36.18,108.818-39.18
		c15.669-1.564,29.918,1.002,34.652,6.242c5.08,5.623,4.15,15.698-2.765,29.948c-6.876,14.171-19.255,31.284-44.15,61.036
		c-7.015,8.384-10.779,12.862-13.01,15.092c-1.867,1.867-2.264,1.867-3.223,1.867c-4.799,0-5.491,1.438-7.648,7.529
		c-2.082,5.878-2.317,9.31-0.786,11.477c1.019,1.443,2.762,2.174,5.179,2.174c3.001,0,4.664-1.481,10.474-7.816
		c3.668-3.998,8.018-8.883,9.698-10.891c1.623-1.94,7.023-8.248,12.038-14.06c20.043-23.227,36.634-46.278,43.298-60.159
		c7.491-15.601,9.08-28.308,4.723-37.768c-3.618-7.855-11.277-13.387-22.764-16.442c-8.277-2.201-26.855-2.043-39.757,0.34
		c-44.063,8.135-95.754,31.855-145.55,66.79c-58.026,40.708-95.638,85.327-103.192,122.416c-2.2,10.801-1.428,25.367,1.876,35.421
		c3.718,11.312,9.995,21.416,19.754,31.799c9.668,10.285,22.793,20.879,41.306,33.34c6.711,4.517,17.081,11.301,23.116,15.124
		c21.278,13.478,40.827,26.626,52.296,35.172c10.841,8.078,21.812,17.392,24.704,20.402c-0.592,0.482-1.546,1.173-2.872,1.967
		c-12.711,7.615-51.05,33.474-69.529,46.896c-21.389,15.536-53.978,42.292-65.794,54.018
		c-16.631,16.504-28.202,31.673-34.393,45.084c-6.342,13.739-7.056,25.642-2.122,35.377c3.245,6.404,9.816,11.859,17.89,15.09
		l-1.269,0.274l7.892,1.786c3.202,0.725,7.929,1.068,13.205,1.068c8.64,0,18.749-0.921,26.025-2.595
		c21.806-5.017,47.469-16.112,72.26-31.242c24.795-15.132,46.173-32.746,60.195-49.598c10.755-12.925,18.942-27.609,21.9-39.279
		c2.519-9.938,2.921-23.417,0.977-32.777c-2.593-12.488-9.01-24.946-19.619-38.085c-1.807-2.238-3.136-3.986-3.921-5.074
		c6.912-4.307,37.005-22.677,45.246-27.617c-0.613,1.047-1.313,2.233-2.09,3.538c-7.394,12.418-8.796,16.306-8.823,24.471
		c-0.024,7.484,1.104,10.051,6.036,13.733c3.81,2.844,12.095,3.164,18.861,0.729c7.645-2.751,16.781-8.48,23.843-14.952
		c1.191-1.091,1.72-1.546,2.157-1.653c0.529-0.129,1.564,0.052,3.347,0.382c5.3,0.983,12.427,0.133,20.61-2.458
		c8.044-2.547,16.728-6.646,25.113-11.856c1.151-0.715,2.185-1.35,3.072-1.89c-1.207,4.229-0.995,7.996,0.619,10.921
		c1.399,2.535,3.803,4.323,6.955,5.171c0.923,0.249,1.917,0.374,2.989,0.374c7.466,0,18.681-6.101,35.569-19.244
		c4.264-3.318,7.449-5.542,9.119-6.581c1.543,2.762,4.453,5.642,7.304,7.083c6.945,3.508,14.953,2.52,34.274-4.229
		c9.984-3.487,17.801-6.2,21.513-7.312c-0.373,0.922-0.878,2.082-1.511,3.415c-4.034,8.494-4.538,13.578-1.633,16.483
		c4.17,4.171,7.461,3.026,14.523-0.799c17.366-9.405,25.676-13.156,27.123-13.423c0.399,0.056,1.485,0.594,2.242,1.399
		c2.978,3.171,8.13,5.956,14.136,7.643c4.458,1.251,8.013,1.466,22.37,1.351c9.324-0.075,21.342-0.654,26.789-1.291
		c2.573-0.301,4.756-0.521,6.394-0.662c-3.015,3.835-3.823,7.99-2.141,11.317c1.883,3.724,6.437,5.59,12.179,4.989
		c9.368-0.979,26.733-8.849,44.24-20.05c4.907-3.14,8.472-5.325,9.649-5.996c0.589,0.221,1.826,0.853,3.309,1.918
		c15.902,11.418,40.825,22.089,74.079,31.716c33.136,9.593,73.683,17.907,120.515,24.71c6.064,0.882,16.58,2.486,23.442,3.577
		c30.588,4.861,47.574,6.75,90.879,10.105c25.696,1.991,41.275,3.147,50.004,3.552c9.512,0.442,11.618,0.039,12.983-1.093
		c1.174-0.972,1.875-2.863,1.877-5.059C1843.2,491.163,1843.03,488.691,1841.436,487.369z M1432.699,426.931
		c-3.674,1.917-7.195,3.656-10.144,5.016c1.526-1.025,3.063-1.975,4.309-2.61C1428.345,428.581,1430.79,427.58,1432.699,426.931z
		 M1465.303,406.073c-3.245-2.723-15.003-15.66-17.144-19.268c-4.828-8.141-5.797-11.916-5.758-22.438
		c0.032-8.574,0.229-9.978,2.111-15.026c4.362-11.699,11.834-22.99,21.606-32.654c10.986-10.865,25.214-20.003,39.035-25.073
		c7.398-2.714,14.146-4.08,19.769-4.08c4.647,0,8.526,0.934,11.365,2.812c2.935,1.942,4.756,5.013,5.413,9.127
		c0.993,6.217-0.688,14.613-4.862,24.281c-4.33,10.03-11.275,21.216-20.085,32.349c-13.421,16.96-27.496,31.111-44.296,44.535
		C1469.112,403.31,1466.523,405.238,1465.303,406.073z M1127.683,421.871c-3.554,4.21-6.876,7.917-7.94,8.954
		c-0.691-4.572,1.148-14.517,5.037-22.248c5.603-11.137,15.483-23.411,22.494-27.943c0.931-0.602,2.829-1.828,3.982-2.387
		c-0.005,0.515-0.052,1.242-0.14,2.176C1150.26,389.495,1140.624,406.539,1127.683,421.871z M850.353,616.634
		c0.09-12.525,9.844-29.674,27.464-48.289c26.742-28.252,54.742-50.126,119.841-93.621l27.261-18.214l2.702,3.009
		c8.324,9.268,15.812,22.454,18.635,32.811c2.073,7.614,1.905,22.23-0.34,29.507c-2.768,8.974-8.822,20.454-15.424,29.246
		c-12.917,17.203-40.362,40.526-62.481,53.096c-0.838,0.475-3.762,2.154-6.658,3.821c-20.091,11.564-42.152,20.671-60.528,24.985
		c-11.015,2.587-28.903,3.207-35.445,1.228C854.498,630.925,850.285,625.996,850.353,616.634z"/>
	<path style="fill:#FFFFFF;" d="M554.077,392.66L554.077,392.66c-1.785,1.785-1.9,6.246,0.51,8.908
		c1.236,1.366,2.596,2.05,4.066,2.05c1.242,0,2.564-0.488,3.957-1.464c1.438-1.007,2.323-2.543,2.427-4.213
		c0.109-1.752-0.639-3.491-2.053-4.771C560.322,390.762,555.861,390.877,554.077,392.66z"/>
</g>
</svg>
